<svg width="32" height="32" viewBox="0 0 32 32" fill="none" xmlns="http://www.w3.org/2000/svg">
<path d="M14.7709 24.9234C12.2793 24.9234 9.93304 24.6636 8.16448 24.192C6.24633 23.6806 5.23242 22.9759 5.23242 22.1542V15.0772C5.23242 14.9706 5.28762 14.8716 5.37839 14.8155C5.46916 14.7595 5.58233 14.7543 5.67771 14.802L14.7709 19.3486L23.8641 14.802C23.9594 14.7544 24.0727 14.7594 24.1634 14.8155C24.2541 14.8716 24.3093 14.9707 24.3093 15.0772V22.1542C24.3093 22.9759 23.2954 23.6806 21.3773 24.192C19.6087 24.6636 17.2625 24.9234 14.7709 24.9234ZM5.84781 15.5751V22.1542C5.84781 23.0535 9.24245 24.308 14.7709 24.308C20.2993 24.308 23.694 23.0535 23.694 22.1542V15.5751L14.9085 19.9678C14.8219 20.0111 14.7199 20.0111 14.6333 19.9678L5.84781 15.5751Z" fill="black"/>
<path d="M14.77 19.9995C14.7228 19.9995 14.6757 19.9887 14.6324 19.9671L1.09392 13.1978C0.989674 13.1457 0.923828 13.0392 0.923828 12.9226C0.923828 12.8061 0.989674 12.6995 1.09392 12.6474L14.6324 5.8782C14.719 5.83487 14.8209 5.83487 14.9076 5.8782L28.446 12.6474C28.5503 12.6995 28.6161 12.8061 28.6161 12.9226C28.6161 13.0392 28.5503 13.1457 28.446 13.1978L14.9076 19.9671C14.8643 19.9887 14.8171 19.9995 14.77 19.9995ZM1.91952 12.9226L14.77 19.3479L27.6204 12.9226L14.77 6.4974L1.91952 12.9226Z" fill="black"/>
<path d="M28.309 18.1537C28.1391 18.1537 28.0014 18.016 28.0014 17.846V13.2306H14.7706C14.6007 13.2306 14.4629 13.0928 14.4629 12.9229C14.4629 12.753 14.6007 12.6152 14.7706 12.6152H28.309C28.479 12.6152 28.6167 12.753 28.6167 12.9229V17.846C28.6167 18.016 28.479 18.1537 28.309 18.1537Z" fill="black"/>
<path d="M30.7699 26.1521H25.8468C25.7598 26.1521 25.6769 26.1153 25.6187 26.0509C25.5603 25.9864 25.532 25.9003 25.5406 25.8138L26.156 19.6599C26.1723 19.4967 26.3125 19.3751 26.4775 19.3832C26.6413 19.3914 26.7699 19.5266 26.7699 19.6906C26.7699 20.5389 27.46 21.229 28.3083 21.229C29.1566 21.229 29.8468 20.5389 29.8468 19.6906C29.8468 19.5266 29.9754 19.3914 30.1392 19.3833C30.3011 19.3751 30.4443 19.4968 30.4607 19.66L31.0761 25.8138C31.0848 25.9003 31.0564 25.9865 30.998 26.0509C30.9397 26.1153 30.8568 26.1521 30.7699 26.1521ZM26.1868 25.5367H30.4298L29.9808 21.0463C29.5856 21.5329 28.9827 21.8444 28.3083 21.8444C27.634 21.8444 27.031 21.5329 26.6358 21.0463L26.1868 25.5367Z" fill="black"/>
<path d="M28.3081 21.8448C27.1205 21.8448 26.1543 20.8786 26.1543 19.691C26.1543 18.5033 27.1205 17.5371 28.3081 17.5371C29.4958 17.5371 30.462 18.5033 30.462 19.691C30.462 20.8786 29.4958 21.8448 28.3081 21.8448ZM28.3081 18.1525C27.4598 18.1525 26.7697 18.8426 26.7697 19.691C26.7697 20.5393 27.4598 21.2294 28.3081 21.2294C29.1565 21.2294 29.8466 20.5393 29.8466 19.691C29.8466 18.8426 29.1565 18.1525 28.3081 18.1525Z" fill="black"/>
</svg>
